<svg width="32" height="31" viewBox="0 0 32 31" fill="none" xmlns="http://www.w3.org/2000/svg">
<path d="M16 12.4646L14.6 11.1083L17.0667 8.71873H11V6.78123H17.0667L14.6 4.39165L16 3.0354L20.8666 7.74998L16 12.4646ZM9.66665 28.4166C8.99998 28.4166 8.43332 28.1906 7.96665 27.7385C7.49998 27.2864 7.26665 26.7375 7.26665 26.0916C7.26665 25.4458 7.49998 24.8969 7.96665 24.4448C8.43332 23.9927 8.99998 23.7666 9.66665 23.7666C10.3333 23.7666 10.9 23.9927 11.3666 24.4448C11.8333 24.8969 12.0667 25.4458 12.0667 26.0916C12.0667 26.7375 11.8333 27.2864 11.3666 27.7385C10.9 28.1906 10.3333 28.4166 9.66665 28.4166ZM23.1333 28.4166C22.4667 28.4166 21.9 28.1906 21.4333 27.7385C20.9667 27.2864 20.7333 26.7375 20.7333 26.0916C20.7333 25.4458 20.9667 24.8969 21.4333 24.4448C21.9 23.9927 22.4667 23.7666 23.1333 23.7666C23.8 23.7666 24.3667 23.9927 24.8333 24.4448C25.3 24.8969 25.5333 25.4458 25.5333 26.0916C25.5333 26.7375 25.3 27.2864 24.8333 27.7385C24.3667 28.1906 23.8 28.4166 23.1333 28.4166ZM2.06665 4.52081V2.58331H5.93332L11.6 14.3375H21.2L26.5333 5.29581H28.7667L23.3666 15.0802C23.1222 15.4892 22.8055 15.8175 22.4167 16.0651C22.0278 16.3127 21.6 16.4364 21.1333 16.4364H11.0333L9.16665 19.7948H25.5333V21.7323H9.46665C8.62221 21.7323 7.98332 21.4094 7.54998 20.7635C7.11665 20.1177 7.08887 19.4611 7.46665 18.7937L9.59998 14.9833L4.66665 4.52081H2.06665Z" fill="black"/>
</svg>
