<svg width="25" height="25" viewBox="0 0 25 25" fill="none" xmlns="http://www.w3.org/2000/svg">
<path d="M12.5001 11.9604C10.8042 11.9604 9.41675 11.4062 8.33758 10.2979C7.25842 9.18956 6.71883 7.76456 6.71883 6.02289C6.71883 4.28122 7.25842 2.85622 8.33758 1.74789C9.41675 0.639555 10.8042 0.0853882 12.5001 0.0853882C14.1959 0.0853882 15.5834 0.639555 16.6626 1.74789C17.7417 2.85622 18.2813 4.28122 18.2813 6.02289C18.2813 7.76456 17.7417 9.18956 16.6626 10.2979C15.5834 11.4062 14.1959 11.9604 12.5001 11.9604ZM0.166748 24.6666V20.9458C0.166748 19.943 0.410845 19.0854 0.89904 18.3729C1.38723 17.6604 2.01675 17.1194 2.78758 16.75C4.50911 15.9583 6.15998 15.3646 7.74019 14.9687C9.32039 14.5729 10.907 14.375 12.5001 14.375C14.0931 14.375 15.6733 14.5795 17.2407 14.9885C18.8081 15.3975 20.4525 15.9847 22.174 16.75C22.9706 17.1194 23.6129 17.6604 24.1011 18.3729C24.5893 19.0854 24.8334 19.943 24.8334 20.9458V24.6666H0.166748ZM2.47925 22.2916H22.5209V20.9458C22.5209 20.5236 22.3989 20.1212 22.1548 19.7385C21.9107 19.3559 21.6088 19.0722 21.249 18.8875C19.6046 18.0694 18.1015 17.5087 16.7397 17.2052C15.3779 16.9017 13.9647 16.75 12.5001 16.75C11.0355 16.75 9.60946 16.9017 8.22196 17.2052C6.83446 17.5087 5.33133 18.0694 3.71258 18.8875C3.35286 19.0722 3.05737 19.3559 2.82612 19.7385C2.59487 20.1212 2.47925 20.5236 2.47925 20.9458V22.2916ZM12.5001 9.58539C13.5022 9.58539 14.3308 9.24893 14.986 8.57601C15.6412 7.9031 15.9688 7.05206 15.9688 6.02289C15.9688 4.99372 15.6412 4.14268 14.986 3.46976C14.3308 2.79685 13.5022 2.46039 12.5001 2.46039C11.498 2.46039 10.6694 2.79685 10.0141 3.46976C9.35894 4.14268 9.03133 4.99372 9.03133 6.02289C9.03133 7.05206 9.35894 7.9031 10.0141 8.57601C10.6694 9.24893 11.498 9.58539 12.5001 9.58539Z" fill="black"/>
</svg>
